<?xml version="1.0" encoding="UTF-8" standalone="no"?>
<!-- Generator: Adobe Illustrator 14.0.0, SVG Export Plug-In . SVG Version: 6.00 Build 43363)  -->
<svg id="Layer_1" xmlns:rdf="http://www.w3.org/1999/02/22-rdf-syntax-ns#" xmlns="http://www.w3.org/2000/svg" enable-background="new 0 0 22 22" xml:space="preserve" height="22px" viewBox="0 0 22 22" width="22px" version="1.1" y="0px" x="0px" xmlns:cc="http://creativecommons.org/ns#" xmlns:dc="http://purl.org/dc/elements/1.1/"><metadata id="metadata3049"><rdf:RDF><cc:Work rdf:about=""><dc:format>image/svg+xml</dc:format><dc:type rdf:resource="http://purl.org/dc/dcmitype/StillImage"/></cc:Work></rdf:RDF></metadata>
<g id="g3039" style="fill:#fff">
	<g id="g3041" style="fill:#fff">
		<path id="path3043" style="fill:#fff" d="m9 19c0 0.55 0.45 1 1 1h2c0.55 0 1-0.45 1-1v-12h-4v12zm-3-17h-1.999c-0.55 0-1 0.45-1 1l-0.001 16c0 0.55 0.45 1 1 1h1.999c0.55 0 1-0.45 1-1v-2.969h-1.999v-1h1.999v-2.031h-1.999v-1h2v-2h-2v-1h2v-2h-2v-1h2v-3c0-0.55-0.45-1-1-1zm11 5c0.884 0 2-0.93 2-2.078 0-0.775-1.127-2.32-1.6-2.922v1.259c0.235 0.145 0.4 0.399 0.4 0.704 0 0.459-0.358 0.831-0.8 0.831s-0.8-0.372-0.8-0.831c0-0.305 0.165-0.559 0.399-0.704v-1.259c-0.472 0.602-1.599 2.146-1.599 2.922 0 1.148 1.116 2.078 2 2.078zm-8.062-1h4.062l-2.031-4-2.031 4zm6.063 13c0 0.55 0.449 1 1 1h1.999c0.55 0 1-0.45 1-1v-11h-3.999v11z" fill="#fff"/>
	</g>
</g>
</svg>
