<?xml version="1.0" encoding="UTF-8" standalone="no"?>
<!-- Created with Inkscape (http://www.inkscape.org/) -->
<svg id="svg3320" xmlns:rdf="http://www.w3.org/1999/02/22-rdf-syntax-ns#" xmlns="http://www.w3.org/2000/svg" height="22" width="22" version="1.0" xmlns:cc="http://creativecommons.org/ns#" xmlns:dc="http://purl.org/dc/elements/1.1/">
 <metadata id="metadata18">
  <rdf:RDF>
   <cc:Work rdf:about="">
    <dc:format>image/svg+xml</dc:format>
    <dc:type rdf:resource="http://purl.org/dc/dcmitype/StillImage"/>
    <dc:title/>
   </cc:Work>
  </rdf:RDF>
 </metadata>
 <path id="path2920" style="color:#000000;stroke:#fff;fill:#fff" d="m0 0z"/>
 <path id="path2826" style="color:#000000;fill:#fff" d="m11.938 2.0625l-1.782 2.0625-2.1872-1.5938-0.6876 2.6563-2.6874-0.5 0.5312 2.6875-2.6562 0.7188 1.6562 2.1872-2.0625 1.813 2.4375 1.25-1.0938 2.5 2.75 0.094 0.125 2.718 2.5-1.125 1.2808 2.407 1.782-2.063 2.187 1.594 0.688-2.657 2.687 0.5-0.531-2.687 2.656-0.719-1.656-2.187 2.063-1.8128-2.438-1.25 1.094-2.5-2.75-0.0937-0.125-2.7187-2.5 1.125-1.281-2.4063zm-0.938 3.9375c0.554 0 1 0.446 1 1v5c0 0.554-0.446 1-1 1s-1-0.446-1-1v-5c0-0.554 0.446-1 1-1zm0 8c0.554 0 1 0.446 1 1s-0.446 1-1 1-1-0.446-1-1 0.446-1 1-1z"/>
</svg>
